<svg width="320" height="320" viewBox="0 0 320 320" fill="none" xmlns="http://www.w3.org/2000/svg">
  <rect width="320" height="320" rx="32" fill="url(#paint0_linear)"/>
  <g filter="url(#shadow)">
    <circle cx="160" cy="120" r="72" fill="#F2D6B3"/>
    <path d="M100 224c8-44 48-68 60-68s52 24 60 68" fill="#F2D6B3"/>
    <path d="M160 68c-36 0-64 30-64 72 14-14 38-22 64-22s50 8 64 22c0-42-28-72-64-72z" fill="#3D1F0F"/>
    <path d="M118 134c12 10 26 16 42 16s30-6 42-16" stroke="#3D1F0F" stroke-width="8" stroke-linecap="round"/>
    <path d="M126 170c12 10 20 14 34 14s22-4 34-14" stroke="#3D1F0F" stroke-width="10" stroke-linecap="round"/>
    <path d="M104 204c16 12 36 18 56 18s40-6 56-18" stroke="#3D1F0F" stroke-width="14" stroke-linecap="round"/>
    <path d="M100 224c-36 8-56 30-56 72h232c0-42-20-64-56-72" fill="#2B150A" opacity=".88"/>
    <path d="M130 108c0 10 12 18 30 18s30-8 30-18" stroke="#3D1F0F" stroke-width="6" stroke-linecap="round"/>
  </g>
  <defs>
    <linearGradient id="paint0_linear" x1="40" y1="24" x2="276" y2="296" gradientUnits="userSpaceOnUse">
      <stop stop-color="#F97316"/>
      <stop offset="1" stop-color="#B91C1C"/>
    </linearGradient>
    <filter id="shadow" x="28" y="36" width="264" height="276" filterUnits="userSpaceOnUse" color-interpolation-filters="sRGB">
      <feFlood flood-opacity="0" result="BackgroundImageFix"/>
      <feColorMatrix in="SourceAlpha" type="matrix" values="0 0 0 0 0 0 0 0 0 0 0 0 0 0 0 0 0 0 127 0" result="hardAlpha"/>
      <feOffset dy="8"/>
      <feGaussianBlur stdDeviation="14"/>
      <feComposite in2="hardAlpha" operator="out"/>
      <feColorMatrix type="matrix" values="0 0 0 0 0 0 0 0 0 0 0 0 0 0 0 0 0 0 0.2 0"/>
      <feBlend mode="normal" in2="BackgroundImageFix" result="effect1_dropShadow"/>
      <feBlend mode="normal" in="SourceGraphic" in2="effect1_dropShadow" result="shape"/>
    </filter>
  </defs>
</svg>