<svg width="320" height="320" viewBox="0 0 320 320" fill="none" xmlns="http://www.w3.org/2000/svg">
  <rect width="320" height="320" rx="32" fill="url(#paint0_linear)"/>
  <g filter="url(#shadow)">
    <circle cx="160" cy="120" r="70" fill="#F5E2C9"/>
    <path d="M104 216c8-42 42-70 56-70s48 28 56 70" fill="#F5E2C9"/>
    <path d="M160 70c-34 0-62 28-62 72 14-18 38-28 62-28s48 10 62 28c0-44-28-72-62-72z" fill="#1F2937"/>
    <path d="M132 128c8 8 18 12 28 12s20-4 28-12" stroke="#1F2937" stroke-width="8" stroke-linecap="round"/>
    <path d="M128 160c12 12 22 18 32 18s20-6 32-18" stroke="#1F2937" stroke-width="10" stroke-linecap="round"/>
    <path d="M112 196c14 12 30 18 48 18s34-6 48-18" stroke="#1F2937" stroke-width="12" stroke-linecap="round"/>
    <path d="M104 216c-32 10-48 32-48 72h224c0-40-16-62-48-72" fill="#111827" opacity=".94"/>
    <path d="M128 108c0 12 14 22 32 22s32-10 32-22" stroke="#1F2937" stroke-width="6" stroke-linecap="round"/>
    <rect x="140" y="210" width="40" height="24" rx="10" fill="#F59E0B"/>
  </g>
  <defs>
    <linearGradient id="paint0_linear" x1="36" y1="24" x2="284" y2="296" gradientUnits="userSpaceOnUse">
      <stop stop-color="#6366F1"/>
      <stop offset="1" stop-color="#312E81"/>
    </linearGradient>
    <filter id="shadow" x="32" y="36" width="256" height="276" filterUnits="userSpaceOnUse" color-interpolation-filters="sRGB">
      <feFlood flood-opacity="0" result="BackgroundImageFix"/>
      <feColorMatrix in="SourceAlpha" type="matrix" values="0 0 0 0 0 0 0 0 0 0 0 0 0 0 0 0 0 0 127 0" result="hardAlpha"/>
      <feOffset dy="10"/>
      <feGaussianBlur stdDeviation="12"/>
      <feComposite in2="hardAlpha" operator="out"/>
      <feColorMatrix type="matrix" values="0 0 0 0 0 0 0 0 0 0 0 0 0 0 0 0 0 0 0.18 0"/>
      <feBlend mode="normal" in2="BackgroundImageFix" result="effect1_dropShadow"/>
      <feBlend mode="normal" in="SourceGraphic" in2="effect1_dropShadow" result="shape"/>
    </filter>
  </defs>
</svg>