<svg width="320" height="320" viewBox="0 0 320 320" fill="none" xmlns="http://www.w3.org/2000/svg">
  <rect width="320" height="320" rx="32" fill="url(#paint0_linear)"/>
  <g filter="url(#shadow)">
    <circle cx="160" cy="124" r="72" fill="#F4DFC2"/>
    <path d="M112 218c0-32 22-58 48-58s48 26 48 58" fill="#F4DFC2"/>
    <path d="M160 76c-32 0-58 26-58 58 12-12 30-20 58-20s46 8 58 20c0-32-26-58-58-58z" fill="#2F2A25"/>
    <path d="M134 148c4 6 14 12 26 12s22-6 26-12" stroke="#2F2A25" stroke-width="6" stroke-linecap="round"/>
    <path d="M120 182c10 14 24 22 40 22s30-8 40-22" stroke="#2F2A25" stroke-width="10" stroke-linecap="round"/>
    <path d="M112 218c-28 8-48 30-48 72h192c0-42-20-64-48-72" fill="#2F2A25" opacity=".88"/>
  </g>
  <defs>
    <linearGradient id="paint0_linear" x1="32" y1="32" x2="288" y2="288" gradientUnits="userSpaceOnUse">
      <stop stop-color="#3B82F6"/>
      <stop offset="1" stop-color="#1E3A8A"/>
    </linearGradient>
    <filter id="shadow" x="44" y="36" width="232" height="274" filterUnits="userSpaceOnUse" color-interpolation-filters="sRGB">
      <feFlood flood-opacity="0" result="BackgroundImageFix"/>
      <feColorMatrix in="SourceAlpha" type="matrix" values="0 0 0 0 0 0 0 0 0 0 0 0 0 0 0 0 0 0 127 0" result="hardAlpha"/>
      <feOffset dy="8"/>
      <feGaussianBlur stdDeviation="12"/>
      <feComposite in2="hardAlpha" operator="out"/>
      <feColorMatrix type="matrix" values="0 0 0 0 0 0 0 0 0 0 0 0 0 0 0 0 0 0 0.2 0"/>
      <feBlend mode="normal" in2="BackgroundImageFix" result="effect1_dropShadow"/>
      <feBlend mode="normal" in="SourceGraphic" in2="effect1_dropShadow" result="shape"/>
    </filter>
  </defs>
</svg>